# This file uses centimeters as units for non-parametric coordinates.

mtllib Candles_01.mtl
g default
v 0.011143 0.203739 -0.006434
v 0.006434 0.203739 -0.011143
v 0.000000 0.203739 -0.012867
v -0.006434 0.203739 -0.011143
v -0.011143 0.203739 -0.006434
v -0.012867 0.203739 0.000000
v -0.011143 0.203739 0.006434
v -0.006434 0.203739 0.011144
v 0.000000 0.203739 0.012867
v 0.006434 0.203739 0.011144
v 0.011143 0.203739 0.006434
v 0.012867 0.203739 0.000000
v 0.011143 0.468251 -0.006434
v 0.006434 0.468251 -0.011143
v 0.000000 0.468251 -0.012867
v -0.006434 0.468251 -0.011143
v -0.011143 0.468251 -0.006434
v -0.012867 0.468251 0.000000
v -0.011143 0.468251 0.006434
v -0.006434 0.468251 0.011144
v 0.000000 0.468251 0.012867
v 0.006434 0.468251 0.011144
v 0.011143 0.468251 0.006434
v 0.012867 0.468251 0.000000
v 0.000000 0.203739 0.000000
v 0.000000 0.468251 0.000000
v 0.025249 0.006762 -0.018345
v 0.009645 0.006762 -0.029682
v -0.009644 0.006762 -0.029682
v -0.025249 0.006762 -0.018345
v -0.031210 0.006762 0.000000
v -0.025249 0.006762 0.018345
v -0.009644 0.006762 0.029682
v 0.009645 0.006762 0.029682
v 0.025249 0.006762 0.018345
v 0.031210 0.006762 0.000000
v 0.000000 0.006762 0.000000
v 0.000000 0.206762 0.000000
v 0.012260 0.166920 -0.008908
v 0.004683 0.166920 -0.014413
v -0.004683 0.166920 -0.014413
v -0.012260 0.166920 -0.008908
v -0.015154 0.166920 -0.000000
v -0.012260 0.166920 0.008907
v -0.004683 0.166920 0.014412
v 0.004683 0.166920 0.014412
v 0.012260 0.166920 0.008907
v 0.015154 0.166920 -0.000000
v 0.012260 0.014562 -0.008908
v 0.004683 0.014562 -0.014413
v -0.004683 0.014562 -0.014413
v -0.012260 0.014562 -0.008908
v -0.015154 0.014562 -0.000000
v -0.012260 0.014562 0.008907
v -0.004683 0.014562 0.014412
v 0.004683 0.014562 0.014412
v 0.012260 0.014562 0.008907
v 0.015154 0.014562 -0.000000
v 0.055358 0.000000 -0.040220
v 0.021145 0.000000 -0.065077
v 0.021145 0.008999 -0.065077
v 0.055358 0.008999 -0.040220
v -0.021145 0.000000 -0.065077
v -0.021145 0.008999 -0.065077
v -0.055358 0.000000 -0.040220
v -0.055358 0.008999 -0.040220
v -0.068426 0.000000 0.000000
v -0.068426 0.008999 0.000000
v -0.055358 0.000000 0.040220
v -0.055358 0.008999 0.040220
v -0.021145 0.000000 0.065077
v -0.021145 0.008999 0.065077
v 0.021145 0.000000 0.065077
v 0.021145 0.008999 0.065077
v 0.055358 0.000000 0.040220
v 0.055358 0.008999 0.040220
v 0.068426 0.000000 0.000000
v 0.068426 0.008999 0.000000
v 0.021644 0.166920 -0.015725
v 0.008267 0.166920 -0.025444
v 0.008267 0.206762 -0.025444
v 0.021644 0.206762 -0.015725
v -0.008267 0.166920 -0.025444
v -0.008267 0.206762 -0.025444
v -0.021644 0.166920 -0.015725
v -0.021644 0.206762 -0.015725
v -0.026754 0.166920 0.000000
v -0.026754 0.206762 0.000000
v -0.021644 0.166920 0.015725
v -0.021644 0.206762 0.015725
v -0.008267 0.166920 0.025444
v -0.008267 0.206762 0.025444
v 0.008267 0.166920 0.025444
v 0.008267 0.206762 0.025444
v 0.021644 0.166920 0.015725
v 0.021644 0.206762 0.015725
v 0.026754 0.166920 0.000000
v 0.026754 0.206762 0.000000
vt 0.660727 0.054431
vt 0.675302 0.054419
vt 0.675814 0.633209
vt 0.661240 0.633222
vt 0.689876 0.054406
vt 0.690389 0.633196
vt 0.646153 0.054444
vt 0.646665 0.633235
vt 0.704451 0.054393
vt 0.704963 0.633183
vt 0.748174 0.054354
vt 0.762749 0.054341
vt 0.763261 0.633132
vt 0.748686 0.633144
vt 0.777323 0.054328
vt 0.777836 0.633119
vt 0.733600 0.054367
vt 0.734112 0.633157
vt 0.791898 0.054315
vt 0.792410 0.633106
vt 0.277385 0.656165
vt 0.277099 0.619986
vt 0.364276 0.619297
vt 0.364562 0.655476
vt 0.276813 0.583807
vt 0.363990 0.583118
vt 0.277671 0.692344
vt 0.364848 0.691655
vt 0.276527 0.547628
vt 0.363704 0.546939
vt 0.278815 0.837062
vt 0.278529 0.800883
vt 0.365706 0.800194
vt 0.365992 0.836373
vt 0.278243 0.764703
vt 0.365420 0.764014
vt 0.279101 0.873241
vt 0.366278 0.872552
vt 0.277957 0.728524
vt 0.365134 0.727835
vt 0.835045 0.000494
vt 0.855539 0.000432
vt 0.856544 0.333813
vt 0.836050 0.333875
vt 0.876033 0.000371
vt 0.877038 0.333751
vt 0.814551 0.000556
vt 0.815556 0.333936
vt 0.896526 0.000309
vt 0.897531 0.333689
vt 0.937514 0.000185
vt 0.958008 0.000124
vt 0.959013 0.333504
vt 0.938519 0.333566
vt 0.978502 0.000062
vt 0.979507 0.333442
vt 0.917020 0.000247
vt 0.918025 0.333628
vt 0.998995 0.000000
vt 1.000000 0.333380
vt 0.005038 0.740627
vt 0.004409 0.648091
vt 0.024099 0.647957
vt 0.024729 0.740492
vt 0.003779 0.555556
vt 0.023469 0.555422
vt 0.005668 0.833162
vt 0.025358 0.833028
vt 0.003149 0.463019
vt 0.022840 0.462889
vt 0.001889 0.277739
vt 0.001259 0.185204
vt 0.020950 0.185070
vt 0.021579 0.277605
vt 0.000630 0.092669
vt 0.020320 0.092535
vt 0.002518 0.370277
vt 0.022209 0.370138
vt 0.000000 0.000134
vt 0.019690 0.000000
vt 0.689828 0.000013
vt 0.704402 0.000000
vt 0.697139 0.027203
vt 0.717031 0.007276
vt 0.677212 0.007311
vt 0.724329 0.019891
vt 0.669936 0.019940
vt 0.724342 0.034466
vt 0.669950 0.034514
vt 0.717066 0.047094
vt 0.677248 0.047130
vt 0.705011 0.687576
vt 0.690436 0.687589
vt 0.697700 0.660386
vt 0.677808 0.680313
vt 0.717626 0.680278
vt 0.670510 0.667697
vt 0.724902 0.667649
vt 0.670497 0.653123
vt 0.724890 0.653075
vt 0.677773 0.640494
vt 0.717591 0.640460
vt 0.406322 0.392773
vt 0.430889 0.358577
vt 0.471228 0.413462
vt 0.327503 0.367946
vt 0.381767 0.292109
vt 0.470864 0.345345
vt 0.406547 0.434843
vt 0.328136 0.460928
vt 0.470203 0.262689
vt 0.510978 0.358137
vt 0.431478 0.468775
vt 0.383426 0.536020
vt 0.559030 0.290875
vt 0.535910 0.392064
vt 0.471593 0.481578
vt 0.472254 0.564235
vt 0.614320 0.365892
vt 0.536135 0.434165
vt 0.511568 0.468357
vt 0.560690 0.534842
vt 0.614954 0.459080
vt 0.420665 0.709305
vt 0.386631 0.756936
vt 0.421128 0.767845
vt 0.455448 0.756393
vt 0.385882 0.662218
vt 0.476482 0.726955
vt 0.420203 0.650766
vt 0.476196 0.690775
vt 0.454699 0.661674
vt 0.196750 0.405129
vt 0.184629 0.388647
vt 0.252757 0.293450
vt 0.307813 0.368128
vt 0.165136 0.382438
vt 0.164305 0.265387
vt 0.196868 0.425592
vt 0.308445 0.461013
vt 0.145715 0.388875
vt 0.076244 0.294674
vt 0.184939 0.442213
vt 0.254410 0.536434
vt 0.133785 0.405496
vt 0.165518 0.448646
vt 0.166348 0.565697
vt 0.133904 0.425953
vt 0.146024 0.442435
vt 0.077896 0.537611
vt 0.241842 0.737546
vt 0.253757 0.720872
vt 0.256923 0.757961
vt 0.253595 0.700378
vt 0.222402 0.744033
vt 0.222602 0.769414
vt 0.241418 0.683894
vt 0.256174 0.663243
vt 0.202862 0.737854
vt 0.188106 0.758506
vt 0.221878 0.677715
vt 0.221677 0.652335
vt 0.190685 0.721370
vt 0.166609 0.729404
vt 0.202438 0.684203
vt 0.187357 0.663787
vt 0.190523 0.700877
vt 0.166323 0.693225
vt 0.617004 0.054470
vt 0.631579 0.054457
vt 0.632091 0.633248
vt 0.617516 0.633261
vt 0.719025 0.054380
vt 0.719538 0.633170
vt 0.276241 0.511448
vt 0.363418 0.510759
vt 0.794057 0.000618
vt 0.795062 0.333998
vn 0.865846 -0.020265 -0.499900
vn 0.499900 -0.020265 -0.865846
vn 0.499900 0.020265 -0.865846
vn 0.865846 0.020265 -0.499900
vn 0.000000 -0.020264 -0.999795
vn 0.000000 0.020264 -0.999795
vn -0.499900 -0.020266 -0.865846
vn -0.499900 0.020266 -0.865846
vn -0.865846 -0.020265 -0.499900
vn -0.865846 0.020265 -0.499900
vn -0.999795 -0.020264 -0.000000
vn -0.999795 0.020264 -0.000000
vn -0.865847 -0.020265 0.499898
vn -0.865847 0.020266 0.499898
vn -0.499895 -0.020264 0.865849
vn -0.499895 0.020265 0.865849
vn 0.000000 -0.020263 0.999795
vn 0.000000 0.020263 0.999795
vn 0.499895 -0.020265 0.865849
vn 0.499895 0.020265 0.865849
vn 0.865847 -0.020266 0.499898
vn 0.865847 0.020266 0.499898
vn 0.999795 -0.020264 -0.000000
vn 0.999795 0.020264 -0.000000
vn 0.000000 -1.000000 0.000000
vn 0.000000 1.000000 0.000000
vn 0.795883 -0.179457 -0.578244
vn 0.304002 -0.179456 -0.935617
vn 0.298441 0.259404 -0.918500
vn 0.781323 0.259403 -0.567666
vn -0.304002 -0.179457 -0.935616
vn -0.298440 0.259406 -0.918500
vn -0.795888 -0.179453 -0.578238
vn -0.781326 0.259406 -0.567659
vn -0.983766 -0.179457 0.000000
vn -0.965768 0.259406 -0.000001
vn -0.795881 -0.179462 0.578245
vn -0.781321 0.259408 0.567666
vn -0.303998 -0.179460 0.935617
vn -0.298437 0.259407 0.918500
vn 0.303998 -0.179461 0.935617
vn 0.298437 0.259406 0.918501
vn 0.795879 -0.179460 0.578248
vn 0.781319 0.259405 0.567670
vn 0.983766 -0.179459 -0.000008
vn 0.965769 0.259403 -0.000007
vn -0.047198 -0.988267 0.145260
vn -0.123566 -0.988267 0.089775
vn 0.000000 -1.000000 -0.000000
vn 0.047198 -0.988267 0.145261
vn 0.123566 -0.988267 0.089776
vn 0.152735 -0.988267 0.000000
vn 0.123566 -0.988267 -0.089776
vn 0.047197 -0.988267 -0.145260
vn -0.047198 -0.988267 -0.145260
vn -0.123566 -0.988267 -0.089775
vn -0.152736 -0.988267 -0.000000
vn 0.000000 1.000000 -0.000000
vn 0.563140 0.717964 -0.409145
vn 0.215098 0.717969 -0.662007
vn 0.306579 -0.125327 -0.943558
vn 0.802639 -0.125325 -0.583151
vn -0.215098 0.717969 -0.662007
vn -0.306579 -0.125327 -0.943558
vn -0.563140 0.717964 -0.409145
vn -0.802639 -0.125323 -0.583151
vn -0.696073 0.717971 -0.000000
vn -0.992115 -0.125328 0.000000
vn -0.563139 0.717966 0.409145
vn -0.802638 -0.125328 0.583152
vn -0.215098 0.717969 0.662007
vn -0.306579 -0.125329 0.943558
vn 0.215099 0.717967 0.662009
vn 0.306579 -0.125331 0.943558
vn 0.563140 0.717964 0.409146
vn 0.802638 -0.125328 0.583152
vn 0.696073 0.717971 0.000000
vn 0.992115 -0.125330 -0.000000
vn 0.182635 -0.974185 -0.132693
vn 0.069760 -0.974185 -0.214701
vn 0.126736 0.912028 -0.390056
vn 0.331802 0.912027 -0.241068
vn -0.069760 -0.974185 -0.214701
vn -0.126736 0.912028 -0.390056
vn -0.182636 -0.974185 -0.132692
vn -0.331802 0.912027 -0.241068
vn -0.225747 -0.974186 0.000000
vn -0.410127 0.912029 -0.000000
vn -0.182635 -0.974186 0.132692
vn -0.331800 0.912028 0.241067
vn -0.069760 -0.974186 0.214700
vn -0.126736 0.912028 0.390056
vn 0.069761 -0.974185 0.214702
vn 0.126737 0.912027 0.390057
vn 0.182636 -0.974185 0.132694
vn 0.331802 0.912027 0.241068
vn 0.225746 -0.974186 -0.000000
vn 0.410127 0.912029 0.000000
s 1
g candlesticks_01
usemtl candlesticks_01SG
f 1/15/1 2/19/2 14/20/3 13/16/4
f 2/169/2 3/170/5 15/171/6 14/172/3
f 3/170/5 4/7/7 16/8/8 15/171/6
f 4/7/7 5/1/9 17/4/10 16/8/8
f 5/1/9 6/2/11 18/3/12 17/4/10
f 6/2/11 7/5/13 19/6/14 18/3/12
f 7/5/13 8/9/15 20/10/16 19/6/14
f 8/9/15 9/173/17 21/174/18 20/10/16
f 9/173/17 10/17/19 22/18/20 21/174/18
f 10/17/19 11/11/21 23/14/22 22/18/20
f 11/11/21 12/12/23 24/13/24 23/14/22
f 12/12/23 1/15/1 13/16/4 24/13/24
f 2/81/2 1/82/1 25/83/25
f 3/85/5 2/81/2 25/83/25
f 4/87/7 3/85/5 25/83/25
f 5/89/9 4/87/7 25/83/25
f 6/91/11 5/89/9 25/83/25
f 7/5/13 6/91/11 25/83/25
f 8/9/15 7/5/13 25/83/25
f 9/90/17 8/9/15 25/83/25
f 10/88/19 9/90/17 25/83/25
f 11/86/21 10/88/19 25/83/25
f 12/84/23 11/86/21 25/83/25
f 1/82/1 12/84/23 25/83/25
f 13/92/4 14/93/3 26/94/26
f 14/93/3 15/95/6 26/94/26
f 15/95/6 16/97/8 26/94/26
f 16/97/8 17/99/10 26/94/26
f 17/99/10 18/101/12 26/94/26
f 18/101/12 19/6/14 26/94/26
f 19/6/14 20/10/16 26/94/26
f 20/10/16 21/102/18 26/94/26
f 21/102/18 22/100/20 26/94/26
f 22/100/20 23/98/22 26/94/26
f 23/98/22 24/96/24 26/94/26
f 24/96/24 13/92/4 26/94/26
s 2
f 79/35/27 80/39/28 81/40/29 82/36/30
f 80/39/28 83/27/31 84/28/32 81/40/29
f 83/27/31 85/21/33 86/24/34 84/28/32
f 85/21/33 87/22/35 88/23/36 86/24/34
f 87/22/35 89/25/37 90/26/38 88/23/36
f 89/25/37 91/29/39 92/30/40 90/26/38
f 91/29/39 93/175/41 94/176/42 92/30/40
f 93/37/41 95/31/43 96/34/44 94/38/42
f 95/31/43 97/32/45 98/33/46 96/34/44
f 97/32/45 79/35/27 82/36/30 98/33/46
f 28/103/47 27/104/48 37/105/49
f 29/109/50 28/103/47 37/105/49
f 30/113/51 29/109/50 37/105/49
f 31/117/52 30/113/51 37/105/49
f 32/121/53 31/117/52 37/105/49
f 33/120/54 32/121/53 37/105/49
f 34/116/55 33/120/54 37/105/49
f 35/112/56 34/116/55 37/105/49
f 36/108/57 35/112/56 37/105/49
f 27/104/48 36/108/57 37/105/49
f 38/124/58 82/125/30 81/40/29
f 38/124/58 81/40/29 84/28/32
f 38/124/58 84/28/32 86/128/34
f 38/124/58 86/128/34 88/130/36
f 38/124/58 88/130/36 90/132/38
f 38/124/58 90/132/38 92/131/40
f 38/124/58 92/131/40 94/129/42
f 38/124/58 94/129/42 96/127/44
f 38/124/58 96/127/44 98/126/46
f 38/124/58 98/126/46 82/125/30
f 49/55/59 50/59/60 40/60/61 39/56/62
f 50/177/60 51/47/63 41/48/64 40/178/61
f 51/47/63 52/41/65 42/44/66 41/48/64
f 52/41/65 53/42/67 43/43/68 42/44/66
f 53/42/67 54/45/69 44/46/70 43/43/68
f 54/45/69 55/49/71 45/50/72 44/46/70
f 55/49/71 56/57/73 46/58/74 45/50/72
f 56/57/73 57/51/75 47/54/76 46/58/74
f 57/51/75 58/52/77 48/53/78 47/54/76
f 58/52/77 49/55/59 39/56/62 48/53/78
f 59/75/79 60/79/80 61/80/81 62/76/82
f 60/106/80 63/110/83 64/140/84 61/136/81
f 63/67/83 65/61/85 66/64/86 64/68/84
f 65/61/85 67/62/87 68/63/88 66/64/86
f 67/62/87 69/65/89 70/66/90 68/63/88
f 69/65/89 71/69/91 72/70/92 70/66/90
f 71/69/91 73/77/93 74/78/94 72/70/92
f 73/77/93 75/71/95 76/74/96 74/78/94
f 75/71/95 77/72/97 78/73/98 76/74/96
f 77/72/97 59/75/79 62/76/82 78/73/98
f 27/104/48 28/103/47 60/106/80 59/107/79
f 50/133/60 49/134/59 62/135/82 61/136/81
f 28/103/47 29/109/50 63/110/83 60/106/80
f 51/139/63 50/133/60 61/136/81 64/140/84
f 29/109/50 30/113/51 65/114/85 63/110/83
f 52/143/65 51/139/63 64/140/84 66/144/86
f 30/113/51 31/117/52 67/118/87 65/114/85
f 53/146/67 52/143/65 66/144/86 68/147/88
f 31/117/52 32/121/53 69/122/89 67/118/87
f 54/149/69 53/146/67 68/147/88 70/150/90
f 32/121/53 33/120/54 71/123/91 69/122/89
f 55/148/71 54/149/69 70/150/90 72/70/92
f 33/120/54 34/116/55 73/119/93 71/123/91
f 56/145/73 55/148/71 72/70/92 74/78/94
f 34/116/55 35/112/56 75/115/95 73/119/93
f 57/141/75 56/145/73 74/78/94 76/142/96
f 35/112/56 36/108/57 77/111/97 75/115/95
f 58/137/77 57/141/75 76/142/96 78/138/98
f 36/108/57 27/104/48 59/107/79 77/111/97
f 49/134/59 58/137/77 78/138/98 62/135/82
f 39/151/62 40/152/61 80/39/28 79/153/27
f 40/152/61 41/154/64 83/27/31 80/39/28
f 41/154/64 42/157/66 85/158/33 83/27/31
f 42/157/66 43/161/68 87/162/35 85/158/33
f 43/161/68 44/165/70 89/166/37 87/162/35
f 44/165/70 45/167/72 91/168/39 89/166/37
f 45/167/72 46/163/74 93/164/41 91/168/39
f 46/163/74 47/159/76 95/160/43 93/164/41
f 47/159/76 48/155/78 97/156/45 95/160/43
f 48/155/78 39/151/62 79/153/27 97/156/45
