# This file uses centimeters as units for non-parametric coordinates.

mtllib book3.mtl
g default
v -0.080037 -0.000078 -0.001566
v -0.074144 -0.002256 -0.277699
v 0.000000 0.000000 -0.000000
v 0.005894 -0.002178 -0.276134
v 0.000380 0.343305 -0.002953
v 0.006273 0.341127 -0.279087
v -0.079658 0.343227 -0.004519
v -0.073764 0.341049 -0.280652
v -0.073831 0.343237 -0.004312
v -0.074210 -0.000068 -0.001359
v -0.068317 -0.002246 -0.277492
v -0.067938 0.341059 -0.280446
v -0.008665 0.343293 -0.003189
v -0.009044 -0.000012 -0.000236
v -0.003151 -0.002190 -0.276369
v -0.002771 0.341115 -0.279323
v -0.003015 0.341205 -0.267942
v 0.006030 0.341217 -0.267707
v 0.005650 -0.002088 -0.264753
v -0.003394 -0.002100 -0.264989
v -0.068560 -0.002156 -0.266112
v -0.074387 -0.002166 -0.266319
v -0.074008 0.341139 -0.269272
v -0.068181 0.341149 -0.269065
v -0.073831 0.337590 -0.012609
v -0.074210 0.005513 -0.009757
v -0.009044 0.005567 -0.008672
v -0.008665 0.337644 -0.011525
v -0.068560 0.003493 -0.265432
v -0.003394 0.003547 -0.264348
v -0.003015 0.335624 -0.267200
v -0.068181 0.335570 -0.268284
vt 0.975489 0.868416
vt 0.975514 0.802979
vt 0.990772 0.802955
vt 0.990747 0.868392
vt 0.922869 0.802998
vt 0.922844 0.868435
vt 0.907586 0.868400
vt 0.907611 0.802963
vt 0.854941 0.868341
vt 0.854966 0.802904
vt 0.975522 0.883674
vt 0.922877 0.883693
vt 0.922891 0.787740
vt 0.975536 0.787721
vt 0.920854 0.802993
vt 0.922872 0.800983
vt 0.920829 0.868430
vt 0.922849 0.870450
vt 0.975494 0.870431
vt 0.977505 0.868413
vt 0.975517 0.800964
vt 0.977529 0.802976
vt 0.909909 0.802968
vt 0.922887 0.790038
vt 0.909884 0.868405
vt 0.922872 0.881395
vt 0.975517 0.881376
vt 0.988450 0.868396
vt 0.975532 0.790019
vt 0.988474 0.802959
vt 0.973363 0.790019
vt 0.973366 0.787722
vt 0.857135 0.802907
vt 0.857111 0.868343
vt 0.973352 0.883675
vt 0.973347 0.881377
vt 0.973324 0.870432
vt 0.973320 0.868417
vt 0.973344 0.802980
vt 0.973347 0.800964
vt 0.920854 0.802993
vt 0.920829 0.868430
vt 0.909884 0.868405
vt 0.909909 0.802968
vt 0.922849 0.870450
vt 0.973324 0.870432
vt 0.973347 0.881377
vt 0.922872 0.881395
vt 0.922887 0.790038
vt 0.973363 0.790019
vt 0.973347 0.800964
vt 0.922872 0.800983
vn 0.001013 -0.999968 0.007908
vn 0.000773 -0.999969 0.007904
vn 0.001099 -0.999968 0.007908
vn 0.001099 -0.999968 0.007910
vn 0.999772 -0.000924 0.021344
vn 0.999772 -0.000923 0.021351
vn 0.999772 -0.000923 0.021351
vn 0.999772 -0.000924 0.021344
vn -0.001099 0.999968 -0.007910
vn -0.001099 0.999968 -0.007912
vn -0.000772 0.999968 -0.007903
vn -0.001013 0.999968 -0.007908
vn -0.999772 0.000923 -0.021344
vn -0.999772 0.000920 -0.021351
vn -0.999772 0.000920 -0.021351
vn -0.999772 0.000923 -0.021344
vn 0.018311 -0.008621 -0.999795
vn 0.018315 -0.008621 -0.999795
vn 0.026078 -0.008628 -0.999623
vn 0.026078 -0.008628 -0.999623
vn -0.026071 0.008628 0.999623
vn -0.026071 0.008628 0.999623
vn -0.026071 0.008628 0.999623
vn -0.026071 0.008628 0.999623
vn -0.035482 0.008636 0.999333
vn -0.035482 0.008636 0.999333
vn -0.035482 0.008636 0.999333
vn -0.035482 0.008636 0.999333
vn 0.001496 -0.999968 0.007918
vn 0.001496 -0.999968 0.007919
vn 0.000791 -0.999968 0.007905
vn 0.001256 -0.999968 0.007914
vn 0.035497 -0.008637 -0.999333
vn 0.035497 -0.008637 -0.999333
vn 0.018731 -0.008621 -0.999787
vn 0.018739 -0.008621 -0.999787
vn -0.001257 0.999968 -0.007913
vn -0.000791 0.999969 -0.007903
vn -0.001499 0.999968 -0.007922
vn -0.001499 0.999968 -0.007918
vn -0.016646 0.008606 0.999824
vn -0.016646 0.008606 0.999824
vn -0.016646 0.008606 0.999824
vn -0.016646 0.008606 0.999824
vn 0.001256 -0.999968 0.007914
vn 0.000791 -0.999968 0.007905
vn 0.000773 -0.999969 0.007904
vn 0.001013 -0.999968 0.007908
vn 0.018739 -0.008621 -0.999787
vn 0.018731 -0.008621 -0.999787
vn 0.018315 -0.008621 -0.999795
vn 0.018311 -0.008621 -0.999795
vn -0.001257 0.999968 -0.007913
vn -0.001013 0.999968 -0.007908
vn -0.000772 0.999968 -0.007903
vn -0.000791 0.999969 -0.007903
vn -0.001099 0.999968 -0.007910
vn -0.001099 0.999968 -0.007910
vn -0.001013 0.999968 -0.007908
vn -0.001099 0.999968 -0.007910
vn 0.999772 -0.000924 0.021344
vn 0.999772 -0.000924 0.021344
vn 0.999772 -0.000924 0.021344
vn 0.999772 -0.000924 0.021344
vn 0.001099 -0.999968 0.007910
vn 0.001013 -0.999968 0.007908
vn 0.001099 -0.999968 0.007910
vn 0.001099 -0.999968 0.007910
vn 0.000704 -0.999968 0.007915
vn 0.000704 -0.999968 0.007915
vn 0.000704 -0.999968 0.007915
vn 0.000704 -0.999968 0.007915
vn 0.001496 -0.999968 0.007918
vn 0.001496 -0.999968 0.007918
vn 0.001256 -0.999968 0.007914
vn 0.001496 -0.999968 0.007918
vn -0.999772 0.000923 -0.021344
vn -0.999772 0.000923 -0.021344
vn -0.999772 0.000923 -0.021344
vn -0.999772 0.000923 -0.021344
vn -0.001499 0.999968 -0.007918
vn -0.001257 0.999968 -0.007913
vn -0.001499 0.999968 -0.007918
vn -0.001499 0.999968 -0.007918
vn -0.000704 0.999968 -0.007915
vn -0.000704 0.999968 -0.007915
vn -0.000704 0.999968 -0.007915
vn -0.000704 0.999969 -0.007915
vn 0.999977 -0.004319 0.005166
vn 0.999983 0.002730 0.005209
vn 0.999954 0.004950 0.008208
vn 0.999946 -0.006236 0.008263
vn -0.999983 -0.002731 -0.005166
vn -0.999978 0.004320 -0.005128
vn -0.999946 0.006268 -0.008250
vn -0.999954 -0.004991 -0.008192
vn 0.999983 0.002730 0.005209
vn 0.999657 0.014858 0.021588
vn 0.999657 0.014858 0.021588
vn 0.999954 0.004950 0.008208
vn -0.016722 -0.116119 0.993095
vn -0.016722 -0.116119 0.993095
vn -0.016722 -0.116119 0.993095
vn -0.016722 -0.116119 0.993095
vn -0.999655 -0.014993 -0.021587
vn -0.999983 -0.002731 -0.005166
vn -0.999954 -0.004991 -0.008192
vn -0.999655 -0.014993 -0.021587
vn -0.999978 0.004320 -0.005128
vn -0.999653 0.014737 -0.021822
vn -0.999653 0.014737 -0.021822
vn -0.999946 0.006268 -0.008250
vn -0.016895 0.135233 0.990670
vn -0.016895 0.135233 0.990670
vn -0.016895 0.135233 0.990670
vn -0.016895 0.135233 0.990670
vn 0.999655 -0.014626 0.021821
vn 0.999977 -0.004319 0.005166
vn 0.999946 -0.006236 0.008263
vn 0.999655 -0.014626 0.021821
s off
g book3
usemtl book3SG
f 20/36/1 15/27/2 4/11/3 19/35/4
f 19/34/5 4/9/6 6/10/7 18/33/8
f 18/32/9 6/14/10 16/29/11 17/31/12
f 23/39/13 8/2/14 2/1/15 22/38/16
f 15/28/17 16/30/18 6/3/19 4/4/20
f 13/23/21 14/25/22 3/7/23 5/8/24
f 7/5/25 1/6/26 10/17/27 9/15/28
f 22/38/29 2/1/30 11/19/31 21/37/32
f 2/1/33 8/2/34 12/22/35 11/20/36
f 24/40/37 12/21/38 8/2/39 23/39/40
f 25/41/41 26/42/42 27/43/43 28/44/44
f 21/37/45 11/19/46 15/27/47 20/36/48
f 11/20/49 12/22/50 16/30/51 15/28/52
f 24/40/53 17/31/54 16/29/55 12/21/56
f 5/13/57 18/32/58 17/31/59 13/24/60
f 3/7/61 19/34/62 18/33/63 5/8/64
f 14/26/65 20/36/66 19/35/67 3/12/68
f 26/45/69 29/46/70 30/47/71 27/48/72
f 1/6/73 22/38/74 21/37/75 10/18/76
f 7/5/77 23/39/78 22/38/79 1/6/80
f 9/16/81 24/40/82 23/39/83 7/5/84
f 28/49/85 31/50/86 32/51/87 25/52/88
f 9/15/89 10/17/90 26/42/91 25/41/92
f 14/25/93 13/23/94 28/44/95 27/43/96
f 10/18/97 21/37/98 29/46/99 26/45/100
f 21/37/101 20/36/102 30/47/103 29/46/104
f 20/36/105 14/26/106 27/48/107 30/47/108
f 13/24/109 17/31/110 31/50/111 28/49/112
f 17/31/113 24/40/114 32/51/115 31/50/116
f 24/40/117 9/16/118 25/52/119 32/51/120
