# This file uses centimeters as units for non-parametric coordinates.

mtllib book1.mtl
g default
v 0.007891 -0.000076 -0.206823
v -0.000000 0.000000 -0.000000
v -0.061116 -0.000074 -0.207976
v -0.069007 0.000003 -0.001153
v -0.061143 0.293130 -0.208051
v -0.069035 0.293206 -0.001228
v 0.007864 0.293127 -0.206898
v -0.000028 0.293203 -0.000075
v -0.061503 0.293133 -0.198613
v 0.007504 0.293130 -0.197460
v 0.007531 -0.000073 -0.197385
v -0.061476 -0.000070 -0.198538
v -0.062657 0.293206 -0.001121
v -0.055126 0.293133 -0.198506
v -0.054765 0.293129 -0.207944
v -0.054737 -0.000074 -0.207870
v -0.055098 -0.000070 -0.198432
v -0.062629 0.000003 -0.001047
v -0.008502 0.293204 -0.000216
v -0.000971 0.293131 -0.197601
v -0.000611 0.293127 -0.207039
v -0.000583 -0.000076 -0.206965
v -0.000944 -0.000073 -0.197527
v -0.008475 0.000000 -0.000142
v -0.062657 0.290121 -0.007765
v -0.055126 0.290050 -0.198532
v -0.008502 0.290119 -0.006890
v -0.000971 0.290048 -0.197657
v -0.055098 0.003014 -0.198460
v -0.062629 0.003086 -0.007693
v -0.000944 0.003012 -0.197585
v -0.008475 0.003083 -0.006818
vt 0.920480 0.901922
vt 0.920483 0.969182
vt 0.904653 0.969185
vt 0.904649 0.901925
vt 0.841344 0.969181
vt 0.841341 0.901920
vt 0.857171 0.901922
vt 0.857175 0.969182
vt 0.793869 0.969189
vt 0.793865 0.901929
vt 0.856832 0.886093
vt 0.904312 0.886096
vt 0.904313 0.985014
vt 0.856834 0.985011
vt 0.859342 0.969182
vt 0.839178 0.969181
vt 0.859001 0.985011
vt 0.858999 0.886093
vt 0.839174 0.901921
vt 0.859338 0.901922
vt 0.904621 0.970648
vt 0.906116 0.969185
vt 0.859310 0.970645
vt 0.855712 0.969182
vt 0.857144 0.970645
vt 0.855708 0.901922
vt 0.857140 0.900459
vt 0.859307 0.900459
vt 0.904618 0.900462
vt 0.906112 0.901925
vt 0.904355 0.983070
vt 0.918539 0.969183
vt 0.859042 0.983067
vt 0.843288 0.969181
vt 0.856876 0.983067
vt 0.843285 0.901921
vt 0.856874 0.888037
vt 0.859040 0.888037
vt 0.904353 0.888040
vt 0.918536 0.901922
vt 0.859310 0.970645
vt 0.904621 0.970648
vt 0.904355 0.983070
vt 0.859042 0.983067
vt 0.904618 0.900462
vt 0.859307 0.900459
vt 0.859040 0.888037
vt 0.904353 0.888040
vt 0.918536 0.901922
vt 0.918539 0.969183
vt 0.906116 0.969185
vt 0.906112 0.901925
vn -0.000048 -1.000000 0.000368
vn -0.000048 -1.000000 0.000368
vn -0.000048 -1.000000 0.000368
vn -0.000048 -1.000000 0.000371
vn -0.999272 -0.000104 -0.038142
vn -0.999273 -0.000101 -0.038129
vn -0.999273 -0.000101 -0.038129
vn -0.999272 -0.000104 -0.038142
vn 0.000053 1.000000 -0.000363
vn 0.000053 1.000000 -0.000366
vn 0.000051 1.000000 -0.000366
vn 0.000048 1.000000 -0.000364
vn 0.999272 0.000104 0.038143
vn 0.999273 0.000102 0.038129
vn 0.999273 0.000102 0.038129
vn 0.999272 0.000104 0.038143
vn -0.016708 0.000252 0.999860
vn -0.016708 0.000252 0.999860
vn -0.016708 0.000252 0.999860
vn -0.016708 0.000252 0.999860
vn 0.016710 -0.000253 -0.999860
vn 0.016710 -0.000253 -0.999860
vn 0.016713 -0.000252 -0.999860
vn 0.016713 -0.000252 -0.999860
vn 0.000053 1.000000 -0.000366
vn 0.000053 1.000000 -0.000366
vn 0.000053 1.000000 -0.000366
vn 0.000051 1.000000 -0.000366
vn 0.999273 0.000102 0.038129
vn 0.999273 0.000102 0.038129
vn 0.999273 0.000102 0.038128
vn 0.999273 0.000102 0.038128
vn -0.000048 -1.000000 0.000368
vn -0.000048 -1.000000 0.000368
vn -0.000048 -1.000000 0.000368
vn -0.000048 -1.000000 0.000368
vn -0.999273 -0.000101 -0.038129
vn -0.999273 -0.000101 -0.038129
vn -0.999273 -0.000101 -0.038128
vn -0.999273 -0.000101 -0.038128
vn 0.000046 1.000000 -0.000373
vn 0.000046 1.000000 -0.000373
vn 0.000046 1.000000 -0.000373
vn 0.000046 1.000000 -0.000373
vn 0.000048 1.000000 -0.000364
vn 0.000051 1.000000 -0.000366
vn 0.000048 1.000000 -0.000367
vn 0.000048 1.000000 -0.000364
vn 0.016710 -0.000253 -0.999860
vn 0.016710 -0.000253 -0.999860
vn 0.016710 -0.000253 -0.999860
vn 0.016710 -0.000253 -0.999860
vn -0.000048 -1.000000 0.000368
vn -0.000047 -1.000000 0.000368
vn -0.000048 -1.000000 0.000368
vn -0.000048 -1.000000 0.000368
vn -0.000047 -1.000000 0.000372
vn -0.000047 -1.000000 0.000372
vn -0.000047 -1.000000 0.000372
vn -0.000047 -1.000000 0.000372
vn -0.016151 0.000249 0.999870
vn -0.016151 0.000249 0.999870
vn -0.016151 0.000249 0.999870
vn -0.016151 0.000249 0.999870
vn 0.000048 1.000000 -0.000367
vn 0.000048 1.000000 -0.000368
vn 0.000048 1.000000 -0.000368
vn 0.000048 1.000000 -0.000368
vn 0.000048 1.000000 -0.000364
vn 0.000048 1.000000 -0.000367
vn 0.000048 1.000000 -0.000368
vn 0.000048 1.000000 -0.000361
vn 0.016712 -0.000253 -0.999860
vn 0.016712 -0.000253 -0.999860
vn 0.016710 -0.000253 -0.999860
vn 0.016710 -0.000253 -0.999860
vn -0.000048 -1.000000 0.000367
vn -0.000047 -1.000000 0.000367
vn -0.000047 -1.000000 0.000368
vn -0.000048 -1.000000 0.000368
vn -0.000047 -1.000000 0.000368
vn -0.000047 -1.000000 0.000368
vn -0.000047 -1.000000 0.000367
vn -0.000047 -1.000000 0.000368
vn -0.016712 0.000252 0.999860
vn -0.016712 0.000252 0.999860
vn -0.016712 0.000252 0.999860
vn -0.016712 0.000252 0.999860
vn 0.998369 -0.041907 0.038759
vn 0.998369 -0.041907 0.038759
vn 0.998370 -0.041907 0.038759
vn 0.998370 -0.041907 0.038759
vn -0.998356 0.042238 -0.038759
vn -0.998356 0.042238 -0.038759
vn -0.998356 0.042238 -0.038759
vn -0.998356 0.042238 -0.038759
vn -0.016428 -0.013193 0.999778
vn -0.016428 -0.013193 0.999778
vn -0.016428 -0.013193 0.999778
vn -0.016428 -0.013193 0.999778
vn 0.998374 0.041823 0.038726
vn 0.998374 0.041823 0.038726
vn 0.998374 0.041823 0.038726
vn 0.998374 0.041823 0.038726
vn -0.016429 0.013998 0.999767
vn -0.016429 0.013998 0.999767
vn -0.016429 0.013998 0.999767
vn -0.016429 0.013998 0.999767
vn -0.998357 -0.042242 -0.038726
vn -0.998357 -0.042242 -0.038726
vn -0.998357 -0.042242 -0.038726
vn -0.998357 -0.042242 -0.038726
vn -1.000000 -0.000095 0.000000
vn -1.000000 -0.000095 0.000000
vn -1.000000 -0.000095 0.000000
vn -1.000000 -0.000095 0.000000
vn 1.000000 0.000098 -0.000000
vn 1.000000 0.000098 -0.000000
vn 1.000000 0.000098 -0.000000
vn 1.000000 0.000098 -0.000000
s off
g book
usemtl bookSG1
f 16/27/1 17/28/2 12/20/3 3/7/4
f 3/7/5 12/20/6 9/15/7 5/8/8
f 5/8/9 9/15/10 14/23/11 15/25/12
f 7/5/13 10/16/14 11/19/15 1/6/16
f 18/30/17 13/22/18 6/3/19 4/4/20
f 15/24/21 16/26/22 3/7/23 5/8/24
f 9/15/25 6/3/26 13/21/27 14/23/28
f 11/19/29 10/16/30 8/9/31 2/10/32
f 12/20/33 17/28/34 18/29/35 4/4/36
f 9/15/37 12/20/38 4/4/39 6/3/40
f 26/41/41 25/42/42 27/43/43 28/44/44
f 15/25/45 14/23/46 20/33/47 21/35/48
f 21/34/49 22/36/50 16/26/51 15/24/52
f 22/37/53 23/38/54 17/28/55 16/27/56
f 30/45/57 29/46/58 31/47/59 32/48/60
f 32/49/61 27/50/62 25/51/63 30/52/64
f 20/33/65 19/31/66 8/13/67 10/17/68
f 21/35/69 20/33/70 10/17/71 7/14/72
f 7/5/73 1/6/74 22/36/75 21/34/76
f 1/11/77 11/18/78 23/38/79 22/37/80
f 24/39/81 23/38/82 11/18/83 2/12/84
f 2/1/85 8/2/86 19/32/87 24/40/88
f 14/23/89 13/21/90 25/42/91 26/41/92
f 19/31/93 20/33/94 28/44/95 27/43/96
f 20/33/97 14/23/98 26/41/99 28/44/100
f 18/29/101 17/28/102 29/46/103 30/45/104
f 17/28/105 23/38/106 31/47/107 29/46/108
f 23/38/109 24/39/110 32/48/111 31/47/112
f 24/40/113 19/32/114 27/50/115 32/49/116
f 13/22/117 18/30/118 30/52/119 25/51/120
