# This file uses centimeters as units for non-parametric coordinates.

mtllib pillar.mtl
g default
v -0.096549 1.059453 0.035546
v -0.096549 1.059453 -0.092818
v -0.096549 1.194031 0.035546
v -0.096549 1.194031 -0.092818
v -0.117084 1.194031 0.035546
v -0.117084 1.194031 -0.092818
v -0.117084 1.059453 0.035546
v -0.117084 1.059453 -0.092818
v -0.095138 0.719549 -0.083378
v 0.033226 0.719549 -0.083378
v -0.095138 0.854127 -0.083378
v 0.033226 0.854127 -0.083378
v -0.095138 0.854127 -0.103914
v 0.033226 0.854127 -0.103914
v -0.095138 0.719549 -0.103914
v 0.033226 0.719549 -0.103914
v -0.015433 1.513695 -0.072730
v 0.079329 1.513695 -0.072730
v -0.015433 1.613043 -0.072730
v 0.079329 1.613043 -0.072730
v -0.015433 1.613043 -0.087890
v 0.079329 1.613043 -0.087890
v -0.015433 1.513695 -0.087890
v 0.079329 1.513695 -0.087890
v 0.115381 0.952616 0.021220
v 0.115381 0.952616 -0.079322
v 0.115381 1.058025 0.021220
v 0.115381 1.058025 -0.079322
v 0.099296 1.058025 0.021220
v 0.099296 1.058025 -0.079322
v 0.099296 0.952616 0.021220
v 0.099296 0.952616 -0.079322
v -0.024746 1.489396 0.088799
v 0.114626 1.489396 0.088799
v -0.024746 1.635515 0.088799
v 0.114626 1.635515 0.088799
v -0.024746 1.635515 0.066502
v 0.114626 1.635515 0.066502
v -0.024746 1.489396 0.066502
v 0.114626 1.489396 0.066502
v 0.113224 0.868979 0.072337
v 0.113224 0.868979 -0.001233
v 0.113224 0.946110 0.072337
v 0.113224 0.946110 -0.001233
v 0.101454 0.946110 0.072337
v 0.101454 0.946110 -0.001233
v 0.101454 0.868979 0.072337
v 0.101454 0.868979 -0.001233
v 0.110191 0.394938 0.091268
v -0.110191 0.394938 0.091268
v -0.110191 0.394938 -0.095342
v 0.110191 0.394938 -0.095342
v 0.110191 1.741898 0.078007
v -0.110191 1.741898 0.078007
v -0.110191 1.741898 -0.082081
v 0.110191 1.741898 -0.082081
v -0.150975 0.000000 0.141576
v 0.150975 0.000000 0.141576
v 0.150975 0.312573 0.138137
v -0.150975 0.312573 0.138137
v -0.150975 0.312573 -0.142212
v 0.150975 0.312574 -0.142212
v 0.150975 0.000000 -0.145650
v -0.150975 0.000000 -0.145650
v 0.136676 1.742502 0.110581
v -0.136676 1.742502 0.110581
v 0.143852 1.992269 0.121710
v -0.143852 1.992269 0.121710
v -0.136676 1.742502 -0.114655
v -0.143852 1.992269 -0.125784
v 0.143852 1.992269 -0.125784
v 0.136676 1.742502 -0.114655
v 0.162156 1.992269 0.148872
v -0.162156 1.992269 0.148872
v 0.162156 2.093492 0.148872
v -0.162156 2.093492 0.148872
v -0.162156 1.992269 -0.152947
v -0.162156 2.093492 -0.152946
v 0.162156 2.093492 -0.152946
v 0.162156 1.992269 -0.152947
vt 0.680616 0.660221
vt 0.680617 0.714220
vt 0.634614 0.722859
vt 0.643252 0.660222
vt 0.634614 0.660222
vt 0.634614 0.714220
vt 0.597250 0.714220
vt 0.597250 0.660222
vt 0.392384 0.760225
vt 0.392384 0.769284
vt 0.353196 0.769283
vt 0.353196 0.760222
vt 0.392384 0.825918
vt 0.392384 0.834979
vt 0.353196 0.834979
vt 0.353195 0.825918
vt 0.575092 0.653557
vt 0.575093 0.659935
vt 0.547510 0.659937
vt 0.547509 0.653560
vt 0.575093 0.699798
vt 0.575094 0.706174
vt 0.547511 0.706178
vt 0.547510 0.699799
vt 0.315008 0.591923
vt 0.315008 0.547563
vt 0.345702 0.547564
vt 0.345702 0.591923
vt 0.182678 0.025889
vt 0.182678 0.035726
vt 0.140129 0.035726
vt 0.140129 0.025889
vt 0.182678 0.097218
vt 0.182678 0.107055
vt 0.140129 0.107055
vt 0.140129 0.097218
vt 0.671084 0.746133
vt 0.640136 0.746346
vt 0.639989 0.724932
vt 0.670937 0.724718
vt 0.158741 0.899700
vt 0.093208 0.901028
vt 0.093039 0.853943
vt 0.157003 0.852647
vt 0.103481 0.841323
vt 0.146058 0.840461
vt 0.102398 0.638429
vt 0.138924 0.637689
vt 0.428823 0.176046
vt 0.430775 0.241564
vt 0.383693 0.242181
vt 0.381788 0.178232
vt 0.370975 0.231859
vt 0.369707 0.189292
vt 0.168100 0.234875
vt 0.167012 0.198358
vt 0.412129 0.563752
vt 0.378583 0.564422
vt 0.376435 0.539903
vt 0.413297 0.539167
vt 0.376132 0.441663
vt 0.409678 0.440993
vt 0.411826 0.465512
vt 0.374964 0.466248
vt 0.417288 0.536360
vt 0.372335 0.537258
vt 0.372136 0.527308
vt 0.417089 0.526410
vt 0.370973 0.469055
vt 0.415926 0.468157
vt 0.416124 0.478107
vt 0.371172 0.479005
vt 0.643253 0.714220
vt 0.588611 0.714220
vt 0.588611 0.660222
vt 0.344135 0.825918
vt 0.344136 0.769284
vt 0.401444 0.769284
vt 0.401444 0.825918
vt 0.541133 0.699799
vt 0.541133 0.659936
vt 0.581470 0.659936
vt 0.581470 0.699799
vt 0.352799 0.547563
vt 0.352799 0.591923
vt 0.307911 0.591923
vt 0.307911 0.547564
vt 0.130292 0.097218
vt 0.130292 0.035726
vt 0.192516 0.035727
vt 0.192515 0.097218
vt 0.639955 0.719982
vt 0.670902 0.719767
vt 0.671118 0.751084
vt 0.640170 0.751296
vt 0.328583 0.520435
vt 0.380904 0.437621
vt 0.333513 0.524283
vt 0.459678 0.484980
vt 0.454748 0.481132
vt 0.407357 0.567793
vt 0.358086 0.524861
vt 0.430175 0.480554
vt 0.426075 0.477908
vt 0.095465 0.917336
vt 0.093246 0.986207
vt 0.027732 0.984096
vt 0.029952 0.915224
vt 0.597249 0.651584
vt 0.634614 0.651582
vt 0.315008 0.540465
vt 0.345703 0.540468
vt 0.315008 0.599019
vt 0.345702 0.599020
vt 0.087743 0.097218
vt 0.087743 0.035726
vt 0.635184 0.746379
vt 0.635039 0.724965
vt 0.676034 0.746099
vt 0.675888 0.724684
vt 0.142519 0.918852
vt 0.140300 0.987724
vt 0.154619 0.928554
vt 0.152998 0.978820
vt 0.357388 0.935088
vt 0.355768 0.985355
vt 0.202537 0.680588
vt 0.200069 0.749451
vt 0.153020 0.747764
vt 0.155489 0.678901
vt 0.214601 0.690333
vt 0.212799 0.740594
vt 0.417346 0.697601
vt 0.415544 0.747862
vt 0.332700 0.483570
vt 0.357230 0.482011
vt 0.431030 0.523404
vt 0.455561 0.521845
vt 0.362186 0.527506
vt 0.361222 0.479204
vt 0.427039 0.526211
vt 0.404747 0.437145
vt 0.460334 0.517804
vt 0.383513 0.568270
vt 0.327927 0.487611
vt 0.597250 0.722859
vn 1.000000 0.000000 0.000000
vn 1.000000 0.000000 0.000000
vn 1.000000 0.000000 0.000000
vn 1.000000 0.000000 0.000000
vn 0.000000 1.000000 0.000000
vn 0.000000 1.000000 0.000000
vn 0.000000 1.000000 0.000000
vn 0.000000 1.000000 0.000000
vn -1.000000 0.000000 0.000000
vn -1.000000 0.000000 0.000000
vn -1.000000 0.000000 0.000000
vn -1.000000 0.000000 0.000000
vn 0.000000 -1.000000 0.000000
vn 0.000000 -1.000000 0.000000
vn 0.000000 -1.000000 0.000000
vn 0.000000 -1.000000 0.000000
vn 0.000000 0.000000 -1.000000
vn 0.000000 0.000000 -1.000000
vn 0.000000 0.000000 -1.000000
vn 0.000000 0.000000 -1.000000
vn 0.000000 0.000000 1.000000
vn 0.000000 0.000000 1.000000
vn 0.000000 0.000000 1.000000
vn 0.000000 0.000000 1.000000
vn 0.000000 1.000000 0.000000
vn 0.000000 1.000000 0.000000
vn 0.000000 1.000000 0.000000
vn 0.000000 1.000000 0.000000
vn 0.000000 0.000000 -1.000000
vn 0.000000 0.000000 -1.000000
vn 0.000000 0.000000 -1.000000
vn 0.000000 0.000000 -1.000000
vn 0.000000 -1.000000 0.000000
vn 0.000000 -1.000000 0.000000
vn 0.000000 -1.000000 0.000000
vn 0.000000 -1.000000 0.000000
vn 1.000000 0.000000 0.000000
vn 1.000000 0.000000 0.000000
vn 1.000000 0.000000 0.000000
vn 1.000000 0.000000 0.000000
vn -1.000000 0.000000 0.000000
vn -1.000000 0.000000 0.000000
vn -1.000000 0.000000 0.000000
vn -1.000000 0.000000 0.000000
vn 0.000000 1.000000 0.000000
vn 0.000000 1.000000 0.000000
vn 0.000000 1.000000 0.000000
vn 0.000000 1.000000 0.000000
vn 0.000000 0.000000 -1.000000
vn 0.000000 0.000000 -1.000000
vn 0.000000 0.000000 -1.000000
vn 0.000000 0.000000 -1.000000
vn 0.000000 -1.000000 0.000000
vn 0.000000 -1.000000 0.000000
vn 0.000000 -1.000000 0.000000
vn 0.000000 -1.000000 0.000000
vn 1.000000 0.000000 0.000000
vn 1.000000 0.000000 0.000000
vn 1.000000 0.000000 0.000000
vn 1.000000 0.000000 0.000000
vn -1.000000 0.000000 0.000000
vn -1.000000 0.000000 0.000000
vn -1.000000 0.000000 0.000000
vn -1.000000 0.000000 0.000000
vn 1.000000 0.000000 0.000000
vn 1.000000 0.000000 0.000000
vn 1.000000 0.000000 0.000000
vn 1.000000 0.000000 0.000000
vn 0.000000 1.000000 0.000000
vn 0.000000 1.000000 0.000000
vn 0.000000 1.000000 0.000000
vn 0.000000 1.000000 0.000000
vn -1.000000 0.000000 0.000000
vn -1.000000 0.000000 0.000000
vn -1.000000 0.000000 0.000000
vn -1.000000 0.000000 0.000000
vn 0.000000 -1.000000 0.000000
vn 0.000000 -1.000000 0.000000
vn 0.000000 -1.000000 0.000000
vn 0.000000 -1.000000 0.000000
vn 0.000000 0.000000 -1.000000
vn 0.000000 0.000000 -1.000000
vn 0.000000 0.000000 -1.000000
vn 0.000000 0.000000 -1.000000
vn 0.000000 0.000000 1.000000
vn 0.000000 0.000000 1.000000
vn 0.000000 0.000000 1.000000
vn 0.000000 0.000000 1.000000
vn 0.000000 0.000000 1.000000
vn 0.000000 0.000000 1.000000
vn 0.000000 0.000000 1.000000
vn 0.000000 0.000000 1.000000
vn 0.000000 1.000000 0.000000
vn 0.000000 1.000000 0.000000
vn 0.000000 1.000000 0.000000
vn 0.000000 1.000000 0.000000
vn 0.000000 0.000000 -1.000000
vn 0.000000 0.000000 -1.000000
vn 0.000000 0.000000 -1.000000
vn 0.000000 0.000000 -1.000000
vn 0.000000 -1.000000 0.000000
vn 0.000000 -1.000000 0.000000
vn 0.000000 -1.000000 0.000000
vn 0.000000 -1.000000 0.000000
vn 1.000000 0.000000 0.000000
vn 1.000000 0.000000 0.000000
vn 1.000000 0.000000 0.000000
vn 1.000000 0.000000 0.000000
vn -1.000000 0.000000 0.000000
vn -1.000000 0.000000 0.000000
vn -1.000000 0.000000 0.000000
vn -1.000000 0.000000 0.000000
vn 1.000000 0.000000 0.000000
vn 1.000000 0.000000 0.000000
vn 1.000000 0.000000 0.000000
vn 1.000000 0.000000 0.000000
vn 0.000000 1.000000 0.000000
vn 0.000000 1.000000 0.000000
vn 0.000000 1.000000 0.000000
vn 0.000000 1.000000 0.000000
vn -1.000000 0.000000 0.000000
vn -1.000000 0.000000 0.000000
vn -1.000000 0.000000 0.000000
vn -1.000000 0.000000 0.000000
vn 0.000000 -1.000000 0.000000
vn 0.000000 -1.000000 0.000000
vn 0.000000 -1.000000 0.000000
vn 0.000000 -1.000000 0.000000
vn 0.000000 0.000000 -1.000000
vn 0.000000 0.000000 -1.000000
vn 0.000000 0.000000 -1.000000
vn 0.000000 0.000000 -1.000000
vn 0.000000 0.000000 1.000000
vn 0.000000 0.000000 1.000000
vn 0.000000 0.000000 1.000000
vn 0.000000 0.000000 1.000000
vn 0.000000 0.010999 0.999940
vn 0.000000 0.010999 0.999940
vn 0.000000 0.010999 0.999940
vn 0.000000 0.010999 0.999940
vn 0.000000 0.010999 -0.999940
vn 0.000000 0.010999 -0.999940
vn 0.000000 0.010999 -0.999940
vn 0.000000 0.010999 -0.999940
vn 1.000000 0.000000 0.000000
vn 1.000000 0.000000 0.000000
vn 1.000000 0.000000 0.000000
vn 1.000000 0.000000 0.000000
vn -1.000000 0.000002 0.000000
vn -1.000000 0.000002 0.000000
vn -1.000000 0.000002 0.000000
vn -1.000000 0.000002 0.000000
vn 0.000000 -0.044514 0.999009
vn 0.000000 -0.044514 0.999009
vn 0.000000 -0.044514 0.999009
vn 0.000000 -0.044514 0.999009
vn -0.999588 -0.028718 0.000000
vn -0.999588 -0.028718 0.000000
vn -0.999588 -0.028718 0.000000
vn -0.999588 -0.028718 0.000000
vn -0.000000 -0.044514 -0.999009
vn -0.000000 -0.044514 -0.999009
vn -0.000000 -0.044514 -0.999009
vn -0.000000 -0.044514 -0.999009
vn 0.999588 -0.028718 0.000000
vn 0.999588 -0.028718 0.000000
vn 0.999588 -0.028718 0.000000
vn 0.999588 -0.028718 0.000000
vn 0.000000 0.000002 1.000000
vn 0.000000 0.000002 1.000000
vn 0.000000 0.000002 1.000000
vn 0.000000 0.000002 1.000000
vn -1.000000 0.000002 0.000000
vn -1.000000 0.000002 0.000000
vn -1.000000 0.000002 0.000000
vn -1.000000 0.000002 0.000000
vn 0.000000 0.000003 -1.000000
vn 0.000000 0.000003 -1.000000
vn 0.000000 0.000003 -1.000000
vn 0.000000 0.000003 -1.000000
vn 1.000000 0.000002 0.000000
vn 1.000000 0.000002 0.000000
vn 1.000000 0.000002 0.000000
vn 1.000000 0.000002 0.000000
vn 0.000000 0.009845 0.999952
vn 0.000000 0.009845 0.999952
vn 0.000000 0.009845 0.999952
vn 0.000000 0.009845 0.999952
vn 0.000000 0.009845 -0.999952
vn 0.000000 0.009845 -0.999952
vn 0.000000 0.009845 -0.999952
vn 0.000000 0.009845 -0.999952
vn 1.000000 0.000000 0.000000
vn 1.000000 0.000000 0.000000
vn 1.000000 0.000000 0.000000
vn 1.000000 0.000000 0.000000
vn -1.000000 -0.000000 0.000000
vn -1.000000 -0.000000 0.000000
vn -1.000000 -0.000000 0.000000
vn -1.000000 -0.000000 0.000000
vn -0.000000 0.494583 0.869131
vn -0.000000 0.494583 0.869131
vn -0.000000 0.494583 0.869131
vn -0.000000 0.494583 0.869131
vn -0.000000 0.494583 -0.869130
vn -0.000000 0.494583 -0.869130
vn -0.000000 0.494583 -0.869130
vn -0.000000 0.494583 -0.869130
vn 0.896154 0.443743 0.000000
vn 0.896154 0.443743 0.000000
vn 0.896154 0.443743 0.000000
vn 0.896154 0.443743 0.000000
vn -0.896154 0.443743 0.000000
vn -0.896154 0.443743 0.000000
vn -0.896154 0.443743 0.000000
vn -0.896154 0.443743 0.000000
vn 0.000000 -0.999828 0.018546
vn 0.000000 -0.999828 0.018546
vn 0.000000 -0.999828 0.018546
vn 0.000000 -0.999828 0.018546
vn -0.022806 -0.999740 0.000000
vn -0.022806 -0.999740 0.000000
vn -0.022806 -0.999740 0.000000
vn -0.022806 -0.999740 0.000000
vn 0.000000 -0.999828 -0.018544
vn 0.000000 -0.999828 -0.018544
vn 0.000000 -0.999828 -0.018544
vn 0.000000 -0.999828 -0.018544
vn 0.022805 -0.999740 0.000000
vn 0.022805 -0.999740 0.000000
vn 0.022805 -0.999740 0.000000
vn 0.022805 -0.999740 0.000000
vn -0.000001 -1.000000 0.000015
vn -0.000001 -1.000000 0.000015
vn -0.000001 -1.000000 0.000015
vn -0.000001 -1.000000 0.000015
vn -0.000025 -1.000000 0.000000
vn -0.000025 -1.000000 0.000000
vn -0.000025 -1.000000 0.000000
vn -0.000025 -1.000000 0.000000
vn -0.000001 -1.000000 -0.000024
vn -0.000001 -1.000000 -0.000024
vn -0.000001 -1.000000 -0.000024
vn -0.000001 -1.000000 -0.000024
vn 0.000025 -1.000000 0.000000
vn 0.000025 -1.000000 0.000000
vn 0.000025 -1.000000 0.000000
vn 0.000025 -1.000000 0.000000
vn 0.000000 1.000000 0.000000
vn 0.000000 1.000000 0.000000
vn 0.000000 1.000000 0.000000
vn 0.000000 1.000000 0.000000
vn 0.000000 -1.000000 0.000000
vn 0.000000 -1.000000 0.000000
vn 0.000000 -1.000000 0.000000
vn 0.000000 -1.000000 0.000000
s off
g Pillar
usemtl PillarSG
f 1/1/1 2/2/2 4/73/3 3/4/4
f 3/4/5 4/73/6 6/6/7 5/5/8
f 5/5/9 6/6/10 8/7/11 7/8/12
f 7/8/13 8/7/14 2/74/15 1/75/16
f 2/146/17 8/7/18 6/6/19 4/3/20
f 7/8/21 1/109/22 3/110/23 5/5/24
f 11/76/25 12/77/26 14/11/27 13/16/28
f 13/16/29 14/11/30 16/10/31 15/13/32
f 15/13/33 16/10/34 10/78/35 9/79/36
f 10/9/37 16/10/38 14/11/39 12/12/40
f 15/13/41 9/14/42 11/15/43 13/16/44
f 19/80/45 20/81/46 22/19/47 21/24/48
f 21/24/49 22/19/50 24/18/51 23/21/52
f 23/21/53 24/18/54 18/82/55 17/83/56
f 18/17/57 24/18/58 22/19/59 20/20/60
f 23/21/61 17/22/62 19/23/63 21/24/64
f 25/25/65 26/26/66 28/27/67 27/28/68
f 27/28/69 28/27/70 30/84/71 29/85/72
f 29//73 30//74 32//75 31//76
f 31/86/77 32/87/78 26/26/79 25/25/80
f 26/26/81 32/111/82 30/112/83 28/27/84
f 31/113/85 25/25/86 27/28/87 29/114/88
f 33/115/89 34/116/90 36/89/91 35/88/92
f 35/88/93 36/89/94 38/31/95 37/36/96
f 37/36/97 38/31/98 40/30/99 39/33/100
f 39/33/101 40/30/102 34/90/103 33/91/104
f 34/29/105 40/30/106 38/31/107 36/32/108
f 39/33/109 33/34/110 35/35/111 37/36/112
f 41/37/113 42/38/114 44/39/115 43/40/116
f 43/40/117 44/39/118 46/92/119 45/93/120
f 45//121 46//122 48//123 47//124
f 47/94/125 48/95/126 42/38/127 41/37/128
f 42/38/129 48/117/130 46/118/131 44/39/132
f 47/119/133 41/37/134 43/40/135 45/120/136
f 57/106/137 58/105/138 59/121/139 60/122/140
f 61/127/141 62/128/142 63/129/143 64/130/144
f 58/41/145 63/42/146 62/43/147 59/44/148
f 64/49/149 57/50/150 60/51/151 61/52/152
f 66/98/153 65/135/154 67/136/155 68/102/156
f 69/57/157 66/58/158 68/59/159 70/60/160
f 70/137/161 71/103/162 72/100/163 69/138/164
f 65/61/165 72/62/166 71/63/167 67/64/168
f 74/139/169 73/140/170 75/72/171 76/67/172
f 77/65/173 74/66/174 76/67/175 78/68/176
f 78/68/177 79/71/178 80/104/179 77/141/180
f 73/69/181 80/70/182 79/71/183 75/72/184
f 50/124/185 49/123/186 53/125/187 54/126/188
f 52/132/189 51/131/190 55/133/191 56/134/192
f 49/46/193 52/45/194 56/47/195 53/48/196
f 51/54/197 50/53/198 54/55/199 55/56/200
f 49/123/201 50/124/202 60/122/203 59/121/204
f 51/131/205 52/132/206 62/128/207 61/127/208
f 52/45/209 49/46/210 59/44/211 62/43/212
f 50/53/213 51/54/214 61/52/215 60/51/216
f 54/96/217 53/145/218 65/135/219 66/98/220
f 55/101/221 54/144/222 66/58/223 69/57/224
f 56/99/225 55/143/226 69/138/227 72/100/228
f 53/97/229 56/142/230 72/62/231 65/61/232
f 68/102/233 67/136/234 73/140/235 74/139/236
f 70/60/237 68/59/238 74/66/239 77/65/240
f 71/103/241 70/137/242 77/141/243 80/104/244
f 67/64/245 71/63/246 80/70/247 73/69/248
f 75/72/249 79/71/250 78/68/251 76/67/252
f 58/105/253 57/106/254 64/107/255 63/108/256
