# This file uses centimeters as units for non-parametric coordinates.

mtllib book2.mtl
g default
v 0.006136 -0.000082 -0.269189
v -0.000000 0.000000 -0.000000
v -0.050463 -0.000079 -0.270773
v -0.056600 0.000003 -0.001584
v -0.050485 0.315379 -0.270870
v -0.056621 0.315461 -0.001680
v 0.006115 0.315375 -0.269286
v -0.000021 0.315458 -0.000097
v -0.051827 0.315460 -0.001486
v -0.045691 0.315378 -0.270675
v -0.045670 -0.000079 -0.270578
v -0.051806 0.000003 -0.001389
v -0.005687 0.315458 -0.000419
v 0.000450 0.315376 -0.269608
v 0.000472 -0.000082 -0.269511
v -0.005665 0.000001 -0.000322
v -0.050673 0.315381 -0.262627
v -0.045878 0.315381 -0.262433
v 0.000262 0.315379 -0.261365
v 0.005927 0.315378 -0.261043
v 0.005948 -0.000080 -0.260946
v 0.000284 -0.000079 -0.261268
v -0.045857 -0.000077 -0.262336
v -0.050651 -0.000076 -0.262530
v -0.005665 0.005501 -0.006356
v -0.005687 0.309955 -0.006451
v -0.051827 0.309957 -0.007495
v -0.051806 0.005503 -0.007400
v -0.045878 0.309880 -0.262622
v 0.000262 0.309878 -0.261578
v 0.000284 0.005424 -0.261483
v -0.045857 0.005426 -0.262527
vt 0.751171 0.532604
vt 0.818430 0.532439
vt 0.818461 0.544511
vt 0.751202 0.544676
vt 0.818630 0.613992
vt 0.751371 0.614157
vt 0.751343 0.602085
vt 0.818602 0.601920
vt 0.818289 0.475030
vt 0.751029 0.475195
vt 0.739271 0.602052
vt 0.739129 0.544643
vt 0.830533 0.544419
vt 0.830674 0.601828
vt 0.819941 0.544500
vt 0.818457 0.543030
vt 0.818606 0.603401
vt 0.820083 0.601909
vt 0.751346 0.603566
vt 0.749862 0.602081
vt 0.749721 0.544672
vt 0.751198 0.543196
vt 0.828081 0.544437
vt 0.818436 0.534890
vt 0.818624 0.611540
vt 0.828222 0.601846
vt 0.751365 0.611706
vt 0.741723 0.602059
vt 0.741581 0.544650
vt 0.751177 0.535056
vt 0.818598 0.600162
vt 0.820078 0.600151
vt 0.828218 0.600089
vt 0.818293 0.476788
vt 0.830670 0.600070
vt 0.739266 0.600294
vt 0.751034 0.476953
vt 0.741718 0.600301
vt 0.749858 0.600323
vt 0.751339 0.600327
vt 0.751177 0.535056
vt 0.818436 0.534890
vt 0.818457 0.543030
vt 0.751198 0.543196
vt 0.828218 0.600089
vt 0.820078 0.600151
vt 0.819941 0.544500
vt 0.828081 0.544437
vt 0.749858 0.600323
vt 0.741718 0.600301
vt 0.741581 0.544650
vt 0.749721 0.544672
vn -0.000059 -1.000000 0.000303
vn -0.000089 -1.000000 0.000303
vn -0.000099 -1.000000 0.000303
vn -0.000096 -1.000000 0.000300
vn -0.999740 -0.000077 -0.022815
vn -0.999740 -0.000075 -0.022790
vn -0.999740 -0.000075 -0.022790
vn -0.999740 -0.000077 -0.022815
vn 0.000099 1.000000 -0.000306
vn 0.000099 1.000000 -0.000303
vn 0.000089 1.000000 -0.000303
vn 0.000058 1.000000 -0.000304
vn 0.999740 0.000076 0.022815
vn 0.999740 0.000074 0.022790
vn 0.999740 0.000074 0.022790
vn 0.999740 0.000076 0.022815
vn -0.040477 0.000304 0.999180
vn -0.040477 0.000304 0.999180
vn -0.040477 0.000304 0.999180
vn -0.040477 0.000304 0.999180
vn 0.024765 -0.000306 -0.999693
vn 0.024764 -0.000306 -0.999693
vn 0.040477 -0.000304 -0.999180
vn 0.040477 -0.000304 -0.999180
vn 0.000058 1.000000 -0.000304
vn 0.000089 1.000000 -0.000303
vn 0.000121 1.000000 -0.000303
vn 0.000063 1.000000 -0.000304
vn 0.026805 -0.000305 -0.999641
vn 0.026806 -0.000305 -0.999641
vn 0.024764 -0.000306 -0.999693
vn 0.024765 -0.000306 -0.999693
vn -0.000064 -1.000000 0.000304
vn -0.000119 -1.000000 0.000302
vn -0.000089 -1.000000 0.000303
vn -0.000059 -1.000000 0.000303
vn -0.022618 0.000310 0.999744
vn -0.022618 0.000310 0.999744
vn -0.022618 0.000310 0.999744
vn -0.022618 0.000310 0.999744
vn 0.000063 1.000000 -0.000304
vn 0.000121 1.000000 -0.000303
vn 0.000138 1.000000 -0.000303
vn 0.000138 1.000000 -0.000309
vn 0.056679 -0.000303 -0.998392
vn 0.056679 -0.000303 -0.998392
vn 0.026806 -0.000305 -0.999641
vn 0.026805 -0.000305 -0.999641
vn -0.000138 -1.000000 0.000304
vn -0.000136 -1.000000 0.000302
vn -0.000119 -1.000000 0.000302
vn -0.000064 -1.000000 0.000304
vn -0.056679 0.000303 0.998392
vn -0.056679 0.000303 0.998392
vn -0.056679 0.000303 0.998392
vn -0.056679 0.000303 0.998392
vn 0.000099 1.000000 -0.000303
vn 0.000099 1.000000 -0.000303
vn 0.000099 1.000000 -0.000303
vn 0.000089 1.000000 -0.000303
vn 0.000052 1.000000 -0.000300
vn 0.000052 1.000000 -0.000300
vn 0.000052 1.000000 -0.000300
vn 0.000052 1.000000 -0.000300
vn 0.000138 1.000000 -0.000303
vn 0.000121 1.000000 -0.000303
vn 0.000138 1.000000 -0.000303
vn 0.000138 1.000000 -0.000303
vn 0.999740 0.000074 0.022790
vn 0.999740 0.000074 0.022790
vn 0.999740 0.000074 0.022789
vn 0.999740 0.000074 0.022789
vn -0.000119 -1.000000 0.000302
vn -0.000136 -1.000000 0.000302
vn -0.000136 -1.000000 0.000302
vn -0.000136 -1.000000 0.000302
vn -0.000054 -1.000000 0.000300
vn -0.000054 -1.000000 0.000300
vn -0.000054 -1.000000 0.000300
vn -0.000054 -1.000000 0.000300
vn -0.000099 -1.000000 0.000303
vn -0.000089 -1.000000 0.000303
vn -0.000099 -1.000000 0.000303
vn -0.000099 -1.000000 0.000303
vn -0.999740 -0.000075 -0.022790
vn -0.999740 -0.000075 -0.022790
vn -0.999740 -0.000075 -0.022789
vn -0.999740 -0.000075 -0.022789
vn -0.999943 -0.005303 -0.009294
vn -0.999943 0.005257 -0.009292
vn -0.999932 0.005760 -0.010170
vn -0.999932 -0.005795 -0.010168
vn 0.999943 -0.005209 0.009343
vn 0.999942 0.005309 0.009342
vn 0.999932 0.005778 0.010180
vn 0.999932 -0.005684 0.010184
vn -0.022862 -0.036565 0.999070
vn -0.022862 -0.036565 0.999070
vn -0.022862 -0.036565 0.999070
vn -0.022862 -0.036565 0.999070
vn 0.999650 -0.012954 0.023051
vn 0.999943 -0.005209 0.009343
vn 0.999932 -0.005684 0.010184
vn 0.999650 -0.012954 0.023051
vn -0.999943 0.005257 -0.009292
vn -0.999648 0.013143 -0.023049
vn -0.999648 0.013143 -0.023049
vn -0.999932 0.005760 -0.010170
vn -0.022857 0.036939 0.999056
vn -0.022857 0.036939 0.999056
vn -0.022857 0.036939 0.999056
vn -0.022857 0.036939 0.999056
vn -0.999649 -0.013044 -0.023043
vn -0.999943 -0.005303 -0.009294
vn -0.999932 -0.005795 -0.010168
vn -0.999649 -0.013044 -0.023043
vn 0.999942 0.005309 0.009342
vn 0.999650 0.012989 0.023039
vn 0.999650 0.012989 0.023039
vn 0.999932 0.005778 0.010180
s off
g book2
usemtl book2SG
f 11/20/1 23/39/2 24/40/3 3/7/4
f 3/7/5 24/40/6 17/31/7 5/8/8
f 5/8/9 17/31/10 18/32/11 10/18/12
f 7/9/13 20/34/14 21/37/15 1/10/16
f 12/22/17 9/16/18 6/3/19 4/4/20
f 10/17/21 11/19/22 3/7/23 5/8/24
f 10/18/25 18/32/26 19/33/27 14/26/28
f 14/25/29 15/27/30 11/19/31 10/17/32
f 15/28/33 22/38/34 23/39/35 11/20/36
f 25/41/37 26/42/38 27/43/39 28/44/40
f 14/26/41 19/33/42 20/35/43 7/14/44
f 7/5/45 1/6/46 15/27/47 14/25/48
f 1/11/49 21/36/50 22/38/51 15/28/52
f 2/1/53 8/2/54 13/24/55 16/30/56
f 17/31/57 6/3/58 9/15/59 18/32/60
f 30/45/61 29/46/62 27/47/63 26/48/64
f 20/35/65 19/33/66 13/23/67 8/13/68
f 21/37/69 20/34/70 8/2/71 2/1/72
f 22/38/73 21/36/74 2/12/75 16/29/76
f 32/49/77 31/50/78 25/51/79 28/52/80
f 24/40/81 23/39/82 12/21/83 4/4/84
f 17/31/85 24/40/86 4/4/87 6/3/88
f 16/30/89 13/24/90 26/42/91 25/41/92
f 9/16/93 12/22/94 28/44/95 27/43/96
f 19/33/97 18/32/98 29/46/99 30/45/100
f 18/32/101 9/15/102 27/47/103 29/46/104
f 13/23/105 19/33/106 30/45/107 26/48/108
f 23/39/109 22/38/110 31/50/111 32/49/112
f 22/38/113 16/29/114 25/51/115 31/50/116
f 12/21/117 23/39/118 32/49/119 28/52/120
