# This file uses centimeters as units for non-parametric coordinates.

mtllib testfloor.mtl
g default
v -3.000000 -0.000000 3.000000
v 3.000000 -0.000000 3.000000
v -3.000000 0.000000 -3.002049
v 3.000000 0.000000 -3.002049
v -2.130110 -0.012289 -0.177784
v -1.577942 -0.012289 -0.177784
v -2.130110 0.011156 -0.177784
v -1.577942 0.011156 -0.177784
v -2.130110 0.011156 -0.547878
v -1.577942 0.011156 -0.547878
v -2.130110 -0.012289 -0.547878
v -1.577942 -0.012289 -0.547878
v 0.513280 -0.010959 -0.329733
v 1.924471 -0.010959 -0.329733
v 0.513280 0.030112 -0.329733
v 1.924471 0.030112 -0.329733
v 0.513280 0.030112 -1.275591
v 1.924471 0.030112 -1.275591
v 0.513280 -0.010959 -1.275591
v 1.924471 -0.010959 -1.275591
v 0.426079 -0.022877 1.250998
v 1.063036 -0.016149 1.250998
v 0.426079 0.011107 1.250998
v 1.063036 0.011107 1.250998
v 0.426079 0.011107 0.824074
v 1.063036 0.011107 0.824074
v 0.426079 -0.018557 0.824074
v 1.063036 -0.022877 0.824074
v -0.045743 -0.006518 1.602655
v 0.345564 -0.006518 1.602655
v -0.045743 0.015271 1.602655
v 0.345564 0.015271 1.602655
v -0.045743 0.015271 1.340380
v 0.345564 0.015271 1.340380
v -0.045743 -0.006518 1.340380
v 0.345564 -0.006518 1.340380
vt 0.501945 0.009461
vt 0.990754 0.009461
vt 0.990754 0.500987
vt 0.501945 0.500987
vt 0.928122 0.563889
vt 0.879189 0.563888
vt 0.879189 0.560571
vt 0.928122 0.560573
vt 0.879189 0.637700
vt 0.928122 0.637701
vt 0.928122 0.641018
vt 0.879188 0.641016
vt 0.637640 0.804487
vt 0.525919 0.804487
vt 0.525919 0.799051
vt 0.637640 0.799051
vt 0.525919 0.980985
vt 0.637640 0.980985
vt 0.637640 0.986421
vt 0.525919 0.986421
vt 0.937518 0.666027
vt 0.887089 0.665664
vt 0.887199 0.661168
vt 0.937609 0.662421
vt 0.886518 0.745328
vt 0.936945 0.745691
vt 0.936862 0.750188
vt 0.886444 0.749253
vt 0.816230 0.767259
vt 0.850908 0.767258
vt 0.850908 0.770341
vt 0.816231 0.770341
vt 0.850909 0.825732
vt 0.816230 0.825731
vt 0.816231 0.822649
vt 0.850909 0.822650
vt 0.931596 0.637701
vt 0.931596 0.563889
vt 0.980529 0.563889
vt 0.980529 0.637700
vt 0.643076 0.980985
vt 0.643076 0.804487
vt 0.754797 0.804487
vt 0.754797 0.980985
vt 0.832166 0.745329
vt 0.832166 0.665664
vt 0.882593 0.665664
vt 0.882593 0.745329
vt 0.778325 0.822649
vt 0.778325 0.770341
vt 0.813003 0.770341
vt 0.813003 0.822649
vt 0.875715 0.637700
vt 0.875715 0.563888
vt 0.520483 0.980985
vt 0.520483 0.804487
vt 0.941123 0.666011
vt 0.941443 0.745675
vt 0.775097 0.822649
vt 0.775097 0.770341
vn 0.000000 1.000000 0.000000
vn 0.000000 1.000000 0.000000
vn 0.000000 1.000000 0.000000
vn 0.000000 1.000000 0.000000
vn 0.000000 0.000000 1.000000
vn 0.000000 0.000000 1.000000
vn 0.000000 0.000000 1.000000
vn 0.000000 0.000000 1.000000
vn 0.000000 1.000000 0.000000
vn 0.000000 1.000000 0.000000
vn 0.000000 1.000000 0.000000
vn 0.000000 1.000000 0.000000
vn 0.000000 0.000000 -1.000000
vn 0.000000 0.000000 -1.000000
vn 0.000000 0.000000 -1.000000
vn 0.000000 0.000000 -1.000000
vn 0.000000 -1.000000 0.000000
vn 0.000000 -1.000000 0.000000
vn 0.000000 -1.000000 0.000000
vn 0.000000 -1.000000 0.000000
vn 1.000000 0.000000 0.000000
vn 1.000000 0.000000 0.000000
vn 1.000000 0.000000 0.000000
vn 1.000000 0.000000 0.000000
vn -1.000000 0.000000 0.000000
vn -1.000000 0.000000 0.000000
vn -1.000000 0.000000 0.000000
vn -1.000000 0.000000 0.000000
vn 0.000000 0.000000 1.000000
vn 0.000000 0.000000 1.000000
vn 0.000000 0.000000 1.000000
vn 0.000000 0.000000 1.000000
vn 0.000000 1.000000 0.000000
vn 0.000000 1.000000 0.000000
vn 0.000000 1.000000 0.000000
vn 0.000000 1.000000 0.000000
vn 0.000000 0.000000 -1.000000
vn 0.000000 0.000000 -1.000000
vn 0.000000 0.000000 -1.000000
vn 0.000000 0.000000 -1.000000
vn 0.000000 -1.000000 0.000000
vn 0.000000 -1.000000 0.000000
vn 0.000000 -1.000000 0.000000
vn 0.000000 -1.000000 0.000000
vn 1.000000 0.000000 0.000000
vn 1.000000 0.000000 0.000000
vn 1.000000 0.000000 0.000000
vn 1.000000 0.000000 0.000000
vn -1.000000 0.000000 0.000000
vn -1.000000 0.000000 0.000000
vn -1.000000 0.000000 0.000000
vn -1.000000 0.000000 0.000000
vn 0.000000 0.000000 1.000000
vn 0.000000 0.000000 1.000000
vn 0.000000 0.000000 1.000000
vn 0.000000 0.000000 1.000000
vn 0.000000 1.000000 0.000000
vn 0.000000 1.000000 0.000000
vn 0.000000 1.000000 0.000000
vn 0.000000 1.000000 0.000000
vn -0.000000 0.000000 -1.000000
vn -0.000000 0.000000 -1.000000
vn -0.000000 0.000000 -1.000000
vn -0.000000 0.000000 -1.000000
vn 0.001890 -0.999994 0.002820
vn 0.001890 -0.999994 0.002820
vn 0.001890 -0.999994 0.002820
vn 0.001890 -0.999994 0.002820
vn 1.000000 0.000000 0.000000
vn 1.000000 0.000000 0.000000
vn 1.000000 0.000000 0.000000
vn 1.000000 0.000000 0.000000
vn -1.000000 0.000000 0.000000
vn -1.000000 0.000000 0.000000
vn -1.000000 0.000000 0.000000
vn -1.000000 0.000000 0.000000
vn 0.000000 0.000000 1.000000
vn 0.000000 0.000000 1.000000
vn 0.000000 0.000000 1.000000
vn 0.000000 0.000000 1.000000
vn 0.000000 1.000000 0.000000
vn 0.000000 1.000000 0.000000
vn 0.000000 1.000000 0.000000
vn 0.000000 1.000000 0.000000
vn 0.000000 0.000000 -1.000000
vn 0.000000 0.000000 -1.000000
vn 0.000000 0.000000 -1.000000
vn 0.000000 0.000000 -1.000000
vn 0.000000 -1.000000 0.000000
vn 0.000000 -1.000000 0.000000
vn 0.000000 -1.000000 0.000000
vn 0.000000 -1.000000 0.000000
vn 1.000000 0.000000 0.000000
vn 1.000000 0.000000 0.000000
vn 1.000000 0.000000 0.000000
vn 1.000000 0.000000 0.000000
vn -1.000000 0.000000 0.000000
vn -1.000000 0.000000 0.000000
vn -1.000000 0.000000 0.000000
vn -1.000000 0.000000 0.000000
s off
g floor3
usemtl floor3SG
f 1/1/1 2/2/2 4/3/3 3/4/4
f 5/10/5 6/5/6 8/38/7 7/37/8
f 7/37/9 8/38/10 10/39/11 9/40/12
f 9/53/13 10/54/14 12/6/15 11/9/16
f 11/9/17 12/6/18 6/5/19 5/10/20
f 6/5/21 12/6/22 10/7/23 8/8/24
f 11/9/25 5/10/26 7/11/27 9/12/28
f 13/18/29 14/13/30 16/42/31 15/41/32
f 15/41/33 16/42/34 18/43/35 17/44/36
f 17/55/37 18/56/38 20/14/39 19/17/40
f 19/17/41 20/14/42 14/13/43 13/18/44
f 14/13/45 20/14/46 18/15/47 16/16/48
f 19/17/49 13/18/50 15/19/51 17/20/52
f 21/26/53 22/21/54 24/57/55 23/58/56
f 23/45/57 24/46/58 26/47/59 25/48/60
f 25/48/61 26/47/62 28/22/63 27/25/64
f 27/25/65 28/22/66 22/21/67 21/26/68
f 22/21/69 28/22/70 26/23/71 24/24/72
f 27/25/73 21/26/74 23/27/75 25/28/76
f 29/52/77 30/51/78 32/32/79 31/35/80
f 31/35/81 32/32/82 34/31/83 33/36/84
f 33/59/85 34/60/86 36/50/87 35/49/88
f 35/49/89 36/50/90 30/51/91 29/52/92
f 30/29/93 36/30/94 34/31/95 32/32/96
f 35/33/97 29/34/98 31/35/99 33/36/100
