# This file uses centimeters as units for non-parametric coordinates.

mtllib plinth.mtl
g default
v -0.815282 0.057135 -0.167917
v -0.174852 0.057135 -0.167917
v -0.815282 0.494345 -0.167917
v -0.174852 0.494345 -0.167917
v -0.815282 0.494345 -0.808347
v -0.174852 0.494345 -0.808347
v -0.815282 0.057135 -0.808347
v -0.174852 0.057135 -0.808347
v -0.870062 -0.034994 -0.113136
v -0.137600 -0.034994 -0.130665
v -0.137600 0.057135 -0.130665
v -0.852533 0.057135 -0.130665
v -0.852533 0.057135 -0.845599
v -0.137600 0.057135 -0.845599
v -0.137600 -0.034994 -0.845599
v -0.870062 -0.034994 -0.863128
v -0.883728 0.494345 -0.099471
v -0.106405 0.494345 -0.099471
v -0.121381 0.556454 -0.114446
v -0.868753 0.556454 -0.114446
v -0.868753 0.556454 -0.861818
v -0.121381 0.556454 -0.861818
v -0.106405 0.494345 -0.876794
v -0.883728 0.494345 -0.876794
vt 0.300838 0.902421
vt 0.185632 0.870223
vt 0.192483 0.859221
vt 0.298236 0.888584
vt 0.297474 0.882189
vt 0.196061 0.854422
vt 0.252003 0.745932
vt 0.339960 0.757529
vt 0.351099 0.744178
vt 0.259790 0.752428
vt 0.266315 0.750263
vt 0.344292 0.743218
vt 0.337246 0.665241
vt 0.259269 0.672286
vt 0.252462 0.671326
vt 0.343771 0.663076
vt 0.351557 0.669572
vt 0.263600 0.657975
vt 0.131884 0.778319
vt 0.119252 0.680671
vt 0.396488 0.841694
vt 0.126516 0.780634
vt 0.114145 0.786142
vt 0.032852 0.856987
vt 0.338206 0.658433
vt 0.182674 0.669879
vt 0.113295 0.675578
vt 0.388241 0.839916
vt 0.099449 0.673104
vt 0.406350 0.851752
vt 0.364576 0.790878
vt 0.330420 0.651937
vt 0.293563 0.821765
vt 0.190599 0.752509
vt 0.228492 0.803940
vt 0.265354 0.757070
vt 0.273141 0.763567
vt 0.257104 0.665762
vt 0.245966 0.679113
vt 0.346456 0.749742
vt 0.357595 0.736391
vt 0.106242 0.941199
vn 0.012057 0.093562 0.995540
vn 0.012057 0.093562 0.995540
vn 0.012057 0.093562 0.995540
vn 0.012057 0.093562 0.995540
vn 0.000000 0.000000 1.000000
vn 0.000000 0.000000 1.000000
vn 0.000000 0.000000 1.000000
vn 0.000000 0.000000 1.000000
vn 0.000000 0.234398 0.972141
vn 0.000000 0.234398 0.972141
vn 0.000000 0.234398 0.972141
vn 0.000000 0.234398 0.972141
vn 0.000000 0.234398 -0.972141
vn 0.000000 0.234398 -0.972141
vn 0.000000 0.234398 -0.972141
vn 0.000000 0.234398 -0.972141
vn 0.000000 0.000000 -1.000000
vn 0.000000 0.000000 -1.000000
vn 0.000000 0.000000 -1.000000
vn 0.000000 0.000000 -1.000000
vn 0.012057 0.093562 -0.995540
vn 0.012057 0.093562 -0.995540
vn 0.012057 0.093562 -0.995540
vn 0.012057 0.093562 -0.995540
vn 1.000000 0.000000 0.000000
vn 1.000000 0.000000 0.000000
vn 1.000000 0.000000 0.000000
vn 1.000000 0.000000 0.000000
vn 1.000000 0.000000 0.000000
vn 1.000000 0.000000 0.000000
vn 1.000000 0.000000 0.000000
vn 1.000000 0.000000 0.000000
vn 0.972141 0.234399 0.000000
vn 0.972141 0.234399 0.000000
vn 0.972141 0.234398 0.000000
vn 0.972141 0.234398 0.000000
vn -0.982377 0.186908 -0.000000
vn -0.982377 0.186908 -0.000000
vn -0.982377 0.186908 -0.000000
vn -0.982377 0.186908 -0.000000
vn -1.000000 0.000000 0.000000
vn -1.000000 0.000000 0.000000
vn -1.000000 0.000000 0.000000
vn -1.000000 0.000000 0.000000
vn -0.972141 0.234399 0.000000
vn -0.972141 0.234399 0.000000
vn -0.972141 0.234398 0.000000
vn -0.972141 0.234398 0.000000
vn 0.000000 1.000000 0.000000
vn 0.000000 1.000000 0.000000
vn 0.000000 1.000000 0.000000
vn 0.000000 1.000000 0.000000
vn 0.000000 1.000000 -0.000000
vn 0.000000 1.000000 -0.000000
vn 0.000000 1.000000 -0.000000
vn 0.000000 1.000000 -0.000000
vn 0.000000 1.000000 -0.000000
vn 0.000000 1.000000 0.000000
vn 0.000000 1.000000 0.000000
vn 0.000000 1.000000 -0.000000
vn 0.000000 -1.000000 0.000000
vn 0.000000 -1.000000 0.000000
vn 0.000000 -1.000000 0.000000
vn 0.000000 -1.000000 0.000000
vn 0.000000 1.000000 0.000000
vn 0.000000 1.000000 -0.000000
vn 0.000000 1.000000 -0.000000
vn 0.000000 1.000000 0.000000
vn 0.000000 -1.000000 0.000000
vn 0.000000 -1.000000 0.000000
vn 0.000000 -1.000000 0.000000
vn 0.000000 -1.000000 0.000000
vn 0.000000 -1.000000 -0.000000
vn 0.000000 -1.000000 -0.000000
vn 0.000000 -1.000000 -0.000000
vn 0.000000 -1.000000 -0.000000
vn 0.000000 -1.000000 0.000000
vn 0.000000 -1.000000 -0.000000
vn 0.000000 -1.000000 -0.000000
vn 0.000000 -1.000000 0.000000
vn 0.000000 -1.000000 -0.000000
vn 0.000000 -1.000000 0.000000
vn 0.000000 -1.000000 0.000000
vn 0.000000 -1.000000 -0.000000
vn 0.000000 1.000000 0.000000
vn 0.000000 1.000000 0.000000
vn 0.000000 1.000000 0.000000
vn 0.000000 1.000000 0.000000
s off
g Plinth group2
usemtl PlinthSG
f 9/1/1 10/2/2 11/3/3 12/4/4
f 1/5/5 2/6/6 4/35/7 3/33/8
f 17/40/9 18/36/10 19/11/11 20/12/12
f 21/13/13 22/14/14 23/38/15 24/25/16
f 5/26/17 6/34/18 8/19/19 7/20/20
f 13/27/21 14/22/22 15/23/23 16/29/24
f 10/2/25 15/23/26 14/22/27 11/3/28
f 2/6/29 8/19/30 6/34/31 4/35/32
f 18/10/33 23/15/34 22/14/35 19/11/36
f 16/30/37 9/1/38 12/4/39 13/21/40
f 7/28/41 1/5/42 3/33/43 5/31/44
f 24/16/45 17/9/46 20/12/47 21/13/48
f 2/6/49 1/5/50 12/4/51 11/3/52
f 7/20/53 8/19/54 14/22/55 13/27/56
f 8/19/57 2/6/58 11/3/59 14/22/60
f 9/42/61 16/24/62 15/23/63 10/2/64
f 1/5/65 7/28/66 13/21/67 12/4/68
f 3/8/69 4/37/70 18/36/71 17/40/72
f 6/18/73 5/32/74 24/25/75 23/38/76
f 4/7/77 6/39/78 23/15/79 18/10/80
f 5/17/81 3/41/82 17/9/83 24/16/84
f 22/14/85 21/13/86 20/12/87 19/11/88
